<svg width="713" height="321" viewBox="0 0 713 321" fill="none" xmlns="http://www.w3.org/2000/svg">
<path d="M425 291C425 296.523 420.523 301 415 301C409.477 301 405 296.523 405 291C405 285.477 409.477 281 415 281C420.523 281 425 285.477 425 291ZM407.606 291C407.606 295.084 410.916 298.394 415 298.394C419.084 298.394 422.394 295.084 422.394 291C422.394 286.916 419.084 283.606 415 283.606C410.916 283.606 407.606 286.916 407.606 291Z" fill="#3C322D" fill-opacity="0.12"/>
<path d="M100 271C100 298.614 77.6142 321 50 321C22.3858 321 0 298.614 0 271C0 243.386 22.3858 221 50 221C77.6142 221 100 243.386 100 271ZM13.4934 271C13.4934 291.162 29.838 307.507 50 307.507C70.162 307.507 86.5066 291.162 86.5066 271C86.5066 250.838 70.162 234.493 50 234.493C29.838 234.493 13.4934 250.838 13.4934 271Z" fill="#D68362" fill-opacity="0.17"/>
<path d="M713 50C713 77.6142 690.614 100 663 100C635.386 100 613 77.6142 613 50C613 22.3858 635.386 0 663 0C690.614 0 713 22.3858 713 50ZM626.03 50C626.03 70.4178 642.582 86.9697 663 86.9697C683.418 86.9697 699.97 70.4178 699.97 50C699.97 29.5822 683.418 13.0303 663 13.0303C642.582 13.0303 626.03 29.5822 626.03 50Z" fill="#3C322D" fill-opacity="0.12"/>
</svg>
