<svg width="472" height="912" viewBox="0 0 472 912" fill="none" xmlns="http://www.w3.org/2000/svg">
<path d="M30.0002 425C24.4774 425 20.0002 420.523 20.0002 415C20.0002 409.477 24.4774 405 30.0002 405C35.5231 405 40.0002 409.477 40.0002 415C40.0002 420.523 35.5231 425 30.0002 425ZM30.0002 407.606C25.9167 407.606 22.6063 410.916 22.6063 415C22.6063 419.084 25.9167 422.394 30.0002 422.394C34.0838 422.394 37.3942 419.084 37.3942 415C37.3942 410.916 34.0838 407.606 30.0002 407.606Z" fill="#3C322D" fill-opacity="0.12"/>
<path d="M50.0002 100C22.386 100 0.000240748 77.6142 0.000241955 50C0.000243162 22.3858 22.386 -3.39263e-06 50.0002 -2.18557e-06C77.6145 -9.78513e-07 100 22.3858 100 50C100 77.6142 77.6145 100 50.0002 100ZM50.0002 13.4934C29.8382 13.4934 13.4936 29.838 13.4936 50C13.4936 70.162 29.8382 86.5066 50.0002 86.5066C70.1623 86.5066 86.5068 70.162 86.5068 50C86.5068 29.838 70.1623 13.4934 50.0002 13.4934Z" fill="#D68362" fill-opacity="0.17"/>
<path d="M422 912C394.386 912 372 889.614 372 862C372 834.386 394.386 812 422 812C449.614 812 472 834.386 472 862C472 889.614 449.614 912 422 912ZM422 825.03C401.582 825.03 385.03 841.582 385.03 862C385.03 882.418 401.582 898.97 422 898.97C442.418 898.97 458.97 882.418 458.97 862C458.97 841.582 442.418 825.03 422 825.03Z" fill="#3C322D" fill-opacity="0.12"/>
</svg>
