<svg width="706" height="321" viewBox="0 0 706 321" fill="none" xmlns="http://www.w3.org/2000/svg">
<path d="M93 271C93 298.614 70.6142 321 43 321C15.3858 321 -7 298.614 -7 271C-7 243.386 15.3858 221 43 221C70.6142 221 93 243.386 93 271ZM6.4934 271C6.4934 291.162 22.838 307.507 43 307.507C63.162 307.507 79.5066 291.162 79.5066 271C79.5066 250.838 63.162 234.493 43 234.493C22.838 234.493 6.4934 250.838 6.4934 271Z" fill="#D68362" fill-opacity="0.17"/>
<path d="M706 50C706 77.6142 683.614 100 656 100C628.386 100 606 77.6142 606 50C606 22.3858 628.386 0 656 0C683.614 0 706 22.3858 706 50ZM619.03 50C619.03 70.4178 635.582 86.9697 656 86.9697C676.418 86.9697 692.97 70.4178 692.97 50C692.97 29.5822 676.418 13.0303 656 13.0303C635.582 13.0303 619.03 29.5822 619.03 50Z" fill="#3C322D" fill-opacity="0.12"/>
</svg>
