<svg width="736" height="494" viewBox="0 0 736 494" fill="none" xmlns="http://www.w3.org/2000/svg">
<path d="M396 171C396 182.046 387.046 191 376 191C364.954 191 356 182.046 356 171C356 159.954 364.954 151 376 151C387.046 151 396 159.954 396 171ZM363.732 171C363.732 177.775 369.225 183.268 376 183.268C382.775 183.268 388.268 177.775 388.268 171C388.268 164.225 382.775 158.732 376 158.732C369.225 158.732 363.732 164.225 363.732 171Z" fill="#F3848C" fill-opacity="0.12"/>
<path d="M303 384C303 397.807 291.807 409 278 409C264.193 409 253 397.807 253 384C253 370.193 264.193 359 278 359C291.807 359 303 370.193 303 384ZM262.665 384C262.665 392.469 269.531 399.335 278 399.335C286.469 399.335 293.335 392.469 293.335 384C293.335 375.531 286.469 368.665 278 368.665C269.531 368.665 262.665 375.531 262.665 384Z" fill="#E6C01C" fill-opacity="0.06"/>
<path d="M50 63C50 76.8071 38.8071 88 25 88C11.1929 88 0 76.8071 0 63C0 49.1929 11.1929 38 25 38C38.8071 38 50 49.1929 50 63ZM6.51513 63C6.51513 73.2089 14.7911 81.4849 25 81.4849C35.2089 81.4849 43.4849 73.2089 43.4849 63C43.4849 52.7911 35.2089 44.5151 25 44.5151C14.7911 44.5151 6.51513 52.7911 6.51513 63Z" fill="#3C322D" fill-opacity="0.12"/>
<path d="M346 254C346 259.523 341.523 264 336 264C330.477 264 326 259.523 326 254C326 248.477 330.477 244 336 244C341.523 244 346 248.477 346 254ZM328.606 254C328.606 258.084 331.916 261.394 336 261.394C340.084 261.394 343.394 258.084 343.394 254C343.394 249.916 340.084 246.606 336 246.606C331.916 246.606 328.606 249.916 328.606 254Z" fill="#3C322D" fill-opacity="0.12"/>
<path d="M761 25C761 38.8071 749.807 50 736 50C722.193 50 711 38.8071 711 25C711 11.1929 722.193 0 736 0C749.807 0 761 11.1929 761 25ZM720.628 25C720.628 33.4895 727.51 40.3716 736 40.3716C744.49 40.3716 751.372 33.4895 751.372 25C751.372 16.5105 744.49 9.6284 736 9.6284C727.51 9.6284 720.628 16.5105 720.628 25Z" fill="#D68362" fill-opacity="0.15"/>
<path d="M580 234C580 247.807 568.807 259 555 259C541.193 259 530 247.807 530 234C530 220.193 541.193 209 555 209C568.807 209 580 220.193 580 234ZM536.747 234C536.747 244.081 544.919 252.253 555 252.253C565.081 252.253 573.253 244.081 573.253 234C573.253 223.919 565.081 215.747 555 215.747C544.919 215.747 536.747 223.919 536.747 234Z" fill="#D68362" fill-opacity="0.17"/>
<path d="M541 55C541 63.8366 533.837 71 525 71C516.163 71 509 63.8366 509 55C509 46.1634 516.163 39 525 39C533.837 39 541 46.1634 541 55ZM518.599 55C518.599 58.5353 521.465 61.4012 525 61.4012C528.535 61.4012 531.401 58.5353 531.401 55C531.401 51.4647 528.535 48.5988 525 48.5988C521.465 48.5988 518.599 51.4647 518.599 55Z" fill="#3C322D" fill-opacity="0.06"/>
<path d="M538 478C538 486.837 530.837 494 522 494C513.163 494 506 486.837 506 478C506 469.163 513.163 462 522 462C530.837 462 538 469.163 538 478ZM515.599 478C515.599 481.535 518.465 484.401 522 484.401C525.535 484.401 528.401 481.535 528.401 478C528.401 474.465 525.535 471.599 522 471.599C518.465 471.599 515.599 474.465 515.599 478Z" fill="#3C322D" fill-opacity="0.06"/>
</svg>
