<svg width="171" height="432" viewBox="0 0 171 432" fill="none" xmlns="http://www.w3.org/2000/svg">
<path d="M55 392C55 414.091 37.0914 432 15 432C-7.09139 432 -25 414.091 -25 392C-25 369.909 -7.09139 352 15 352C37.0914 352 55 369.909 55 392ZM-9.53571 392C-9.53571 405.551 1.4493 416.536 15 416.536C28.5507 416.536 39.5357 405.551 39.5357 392C39.5357 378.449 28.5507 367.464 15 367.464C1.4493 367.464 -9.53571 378.449 -9.53571 392Z" fill="#F3848C" fill-opacity="0.12"/>
<path d="M171 20C171 31.0457 162.046 40 151 40C139.954 40 131 31.0457 131 20C131 8.9543 139.954 0 151 0C162.046 0 171 8.9543 171 20ZM138.732 20C138.732 26.7753 144.225 32.2679 151 32.2679C157.775 32.2679 163.268 26.7753 163.268 20C163.268 13.2247 157.775 7.73215 151 7.73215C144.225 7.73215 138.732 13.2247 138.732 20Z" fill="#F3848C" fill-opacity="0.12"/>
</svg>
