<svg width="701" height="650" viewBox="0 0 701 650" fill="none" xmlns="http://www.w3.org/2000/svg">
<path d="M701 130C701 141.046 692.046 150 681 150C669.954 150 661 141.046 661 130C661 118.954 669.954 110 681 110C692.046 110 701 118.954 701 130ZM668.732 130C668.732 136.775 674.225 142.268 681 142.268C687.775 142.268 693.268 136.775 693.268 130C693.268 123.225 687.775 117.732 681 117.732C674.225 117.732 668.732 123.225 668.732 130Z" fill="#F3848C" fill-opacity="0.12"/>
<path d="M228 10C228 15.5228 223.523 20 218 20C212.477 20 208 15.5228 208 10C208 4.47715 212.477 0 218 0C223.523 0 228 4.47715 228 10ZM210.606 10C210.606 14.0836 213.916 17.3939 218 17.3939C222.084 17.3939 225.394 14.0836 225.394 10C225.394 5.91644 222.084 2.60605 218 2.60605C213.916 2.60605 210.606 5.91644 210.606 10Z" fill="#3C322D" fill-opacity="0.12"/>
<path d="M100 292C100 319.614 77.6142 342 50 342C22.3858 342 0 319.614 0 292C0 264.386 22.3858 242 50 242C77.6142 242 100 264.386 100 292ZM19.3304 292C19.3304 308.938 33.0616 322.67 50 322.67C66.9384 322.67 80.6696 308.938 80.6696 292C80.6696 275.062 66.9384 261.33 50 261.33C33.0616 261.33 19.3304 275.062 19.3304 292Z" fill="#E6C01C" fill-opacity="0.06"/>
<path d="M549 600C549 627.614 526.614 650 499 650C471.386 650 449 627.614 449 600C449 572.386 471.386 550 499 550C526.614 550 549 572.386 549 600ZM468.257 600C468.257 616.979 482.021 630.743 499 630.743C515.979 630.743 529.743 616.979 529.743 600C529.743 583.021 515.979 569.257 499 569.257C482.021 569.257 468.257 583.021 468.257 600Z" fill="#D68362" fill-opacity="0.15"/>
<path d="M641 372C641 388.569 627.569 402 611 402C594.431 402 581 388.569 581 372C581 355.431 594.431 342 611 342C627.569 342 641 355.431 641 372ZM589.096 372C589.096 384.097 598.903 393.904 611 393.904C623.097 393.904 632.904 384.097 632.904 372C632.904 359.903 623.097 350.096 611 350.096C598.903 350.096 589.096 359.903 589.096 372Z" fill="#E6E1D8"/>
</svg>
