<svg width="768" height="131" viewBox="0 0 768 131" fill="none" xmlns="http://www.w3.org/2000/svg">
<path d="M24 111C24 122.046 15.0457 131 4 131C-7.0457 131 -16 122.046 -16 111C-16 99.9543 -7.0457 91 4 91C15.0457 91 24 99.9543 24 111ZM-10.6026 111C-10.6026 119.065 -4.06482 125.603 4 125.603C12.0648 125.603 18.6026 119.065 18.6026 111C18.6026 102.935 12.0648 96.3974 4 96.3974C-4.06482 96.3974 -10.6026 102.935 -10.6026 111Z" fill="#D68362" fill-opacity="0.17"/>
<path d="M227 44C227 55.0457 218.046 64 207 64C195.954 64 187 55.0457 187 44C187 32.9543 195.954 24 207 24C218.046 24 227 32.9543 227 44ZM194.732 44C194.732 50.7753 200.225 56.2679 207 56.2679C213.775 56.2679 219.268 50.7753 219.268 44C219.268 37.2247 213.775 31.7321 207 31.7321C200.225 31.7321 194.732 37.2247 194.732 44Z" fill="#F3848C" fill-opacity="0.12"/>
<path d="M471 33C471 46.8071 459.807 58 446 58C432.193 58 421 46.8071 421 33C421 19.1929 432.193 8 446 8C459.807 8 471 19.1929 471 33ZM430.665 33C430.665 41.4692 437.531 48.3348 446 48.3348C454.469 48.3348 461.335 41.4692 461.335 33C461.335 24.5308 454.469 17.6652 446 17.6652C437.531 17.6652 430.665 24.5308 430.665 33Z" fill="#E6C01C" fill-opacity="0.06"/>
<path d="M104 8C104 12.4183 100.418 16 96 16C91.5817 16 88 12.4183 88 8C88 3.58172 91.5817 0 96 0C100.418 0 104 3.58172 104 8ZM92.7994 8C92.7994 9.76765 94.2324 11.2006 96 11.2006C97.7676 11.2006 99.2006 9.76765 99.2006 8C99.2006 6.23235 97.7676 4.79939 96 4.79939C94.2324 4.79939 92.7994 6.23235 92.7994 8Z" fill="#3C322D" fill-opacity="0.06"/>
<path d="M787 58C787 71.8071 775.807 83 762 83C748.193 83 737 71.8071 737 58C737 44.1929 748.193 33 762 33C775.807 33 787 44.1929 787 58ZM746.628 58C746.628 66.4895 753.51 73.3716 762 73.3716C770.49 73.3716 777.372 66.4895 777.372 58C777.372 49.5105 770.49 42.6284 762 42.6284C753.51 42.6284 746.628 49.5105 746.628 58Z" fill="#D68362" fill-opacity="0.15"/>
</svg>
