<svg width="1065" height="457" viewBox="0 0 1065 457" fill="none" xmlns="http://www.w3.org/2000/svg">
<path d="M848 142C848 153.046 839.046 162 828 162C816.954 162 808 153.046 808 142C808 130.954 816.954 122 828 122C839.046 122 848 130.954 848 142ZM815.732 142C815.732 148.775 821.225 154.268 828 154.268C834.775 154.268 840.268 148.775 840.268 142C840.268 135.225 834.775 129.732 828 129.732C821.225 129.732 815.732 135.225 815.732 142Z" fill="#F3848C" fill-opacity="0.12"/>
<path d="M377 40C377 62.0914 359.091 80 337 80C314.909 80 297 62.0914 297 40C297 17.9086 314.909 0 337 0C359.091 0 377 17.9086 377 40ZM312.464 40C312.464 53.5507 323.449 64.5357 337 64.5357C350.551 64.5357 361.536 53.5507 361.536 40C361.536 26.4493 350.551 15.4643 337 15.4643C323.449 15.4643 312.464 26.4493 312.464 40Z" fill="#F3848C" fill-opacity="0.12"/>
<path d="M100 407C100 434.614 77.6142 457 50 457C22.3858 457 0 434.614 0 407C0 379.386 22.3858 357 50 357C77.6142 357 100 379.386 100 407ZM13.4934 407C13.4934 427.162 29.838 443.507 50 443.507C70.162 443.507 86.5066 427.162 86.5066 407C86.5066 386.838 70.162 370.493 50 370.493C29.838 370.493 13.4934 386.838 13.4934 407Z" fill="#D68362" fill-opacity="0.17"/>
<path d="M1065 328C1065 355.614 1042.61 378 1015 378C987.386 378 965 355.614 965 328C965 300.386 987.386 278 1015 278C1042.61 278 1065 300.386 1065 328ZM984.33 328C984.33 344.938 998.062 358.67 1015 358.67C1031.94 358.67 1045.67 344.938 1045.67 328C1045.67 311.062 1031.94 297.33 1015 297.33C998.062 297.33 984.33 311.062 984.33 328Z" fill="#E6C01C" fill-opacity="0.06"/>
</svg>
