<svg width="631" height="741" viewBox="0 0 631 741" fill="none" xmlns="http://www.w3.org/2000/svg">
<path d="M80 701C80 723.091 62.0914 741 40 741C17.9086 741 0 723.091 0 701C0 678.909 17.9086 661 40 661C62.0914 661 80 678.909 80 701ZM15.4643 701C15.4643 714.551 26.4493 725.536 40 725.536C53.5507 725.536 64.5357 714.551 64.5357 701C64.5357 687.449 53.5507 676.464 40 676.464C26.4493 676.464 15.4643 687.449 15.4643 701Z" fill="#F3848C" fill-opacity="0.12"/>
<path d="M631 40C631 62.0914 613.091 80 591 80C568.909 80 551 62.0914 551 40C551 17.9086 568.909 0 591 0C613.091 0 631 17.9086 631 40ZM566.464 40C566.464 53.5507 577.449 64.5357 591 64.5357C604.551 64.5357 615.536 53.5507 615.536 40C615.536 26.4493 604.551 15.4643 591 15.4643C577.449 15.4643 566.464 26.4493 566.464 40Z" fill="#F3848C" fill-opacity="0.12"/>
</svg>
