<svg width="1205" height="219" viewBox="0 0 1205 219" fill="none" xmlns="http://www.w3.org/2000/svg">
<path d="M100 169C100 196.614 77.6142 219 50 219C22.3858 219 0 196.614 0 169C0 141.386 22.3858 119 50 119C77.6142 119 100 141.386 100 169ZM13.0303 169C13.0303 189.418 29.5822 205.97 50 205.97C70.4178 205.97 86.9697 189.418 86.9697 169C86.9697 148.582 70.4178 132.03 50 132.03C29.5822 132.03 13.0303 148.582 13.0303 169Z" fill="#3C322D" fill-opacity="0.12"/>
<path d="M1205 50C1205 77.6142 1182.61 100 1155 100C1127.39 100 1105 77.6142 1105 50C1105 22.3858 1127.39 0 1155 0C1182.61 0 1205 22.3858 1205 50ZM1124.26 50C1124.26 66.979 1138.02 80.7432 1155 80.7432C1171.98 80.7432 1185.74 66.979 1185.74 50C1185.74 33.021 1171.98 19.2568 1155 19.2568C1138.02 19.2568 1124.26 33.021 1124.26 50Z" fill="#D68362" fill-opacity="0.15"/>
</svg>
