<svg width="1205" height="609" viewBox="0 0 1205 609" fill="none" xmlns="http://www.w3.org/2000/svg">
<path d="M827 83.5C827 102.002 812.002 117 793.5 117C774.998 117 760 102.002 760 83.5C760 64.9985 774.998 50 793.5 50C812.002 50 827 64.9985 827 83.5ZM780.097 83.5C780.097 90.902 786.098 96.9025 793.5 96.9025C800.902 96.9025 806.903 90.902 806.903 83.5C806.903 76.098 800.902 70.0974 793.5 70.0974C786.098 70.0974 780.097 76.098 780.097 83.5Z" fill="#3C322D" fill-opacity="0.06"/>
<path d="M877 444C877 471.614 854.614 494 827 494C799.386 494 777 471.614 777 444C777 416.386 799.386 394 827 394C854.614 394 877 416.386 877 444ZM790.493 444C790.493 464.162 806.838 480.507 827 480.507C847.162 480.507 863.507 464.162 863.507 444C863.507 423.838 847.162 407.493 827 407.493C806.838 407.493 790.493 423.838 790.493 444Z" fill="#D68362" fill-opacity="0.17"/>
<path d="M1135 574C1135 593.33 1119.33 609 1100 609C1080.67 609 1065 593.33 1065 574C1065 554.67 1080.67 539 1100 539C1119.33 539 1135 554.67 1135 574ZM1078.53 574C1078.53 585.857 1088.14 595.469 1100 595.469C1111.86 595.469 1121.47 585.857 1121.47 574C1121.47 562.143 1111.86 552.531 1100 552.531C1088.14 552.531 1078.53 562.143 1078.53 574Z" fill="#E6C01C" fill-opacity="0.06"/>
<path d="M100 169C100 196.614 77.6142 219 50 219C22.3858 219 0 196.614 0 169C0 141.386 22.3858 119 50 119C77.6142 119 100 141.386 100 169ZM13.0303 169C13.0303 189.418 29.5822 205.97 50 205.97C70.4178 205.97 86.9697 189.418 86.9697 169C86.9697 148.582 70.4178 132.03 50 132.03C29.5822 132.03 13.0303 148.582 13.0303 169Z" fill="#3C322D" fill-opacity="0.12"/>
<path d="M1205 50C1205 77.6142 1182.61 100 1155 100C1127.39 100 1105 77.6142 1105 50C1105 22.3858 1127.39 0 1155 0C1182.61 0 1205 22.3858 1205 50ZM1124.26 50C1124.26 66.979 1138.02 80.7432 1155 80.7432C1171.98 80.7432 1185.74 66.979 1185.74 50C1185.74 33.021 1171.98 19.2568 1155 19.2568C1138.02 19.2568 1124.26 33.021 1124.26 50Z" fill="#D68362" fill-opacity="0.15"/>
<path d="M377 447C377 452.523 372.523 457 367 457C361.477 457 357 452.523 357 447C357 441.477 361.477 437 367 437C372.523 437 377 441.477 377 447ZM359.606 447C359.606 451.084 362.916 454.394 367 454.394C371.084 454.394 374.394 451.084 374.394 447C374.394 442.916 371.084 439.606 367 439.606C362.916 439.606 359.606 442.916 359.606 447Z" fill="#3C322D" fill-opacity="0.12"/>
</svg>
