<svg width="1280" height="182" viewBox="0 0 1280 182" fill="none" xmlns="http://www.w3.org/2000/svg">
<path d="M907 16C907 24.8366 899.837 32 891 32C882.163 32 875 24.8366 875 16C875 7.16344 882.163 0 891 0C899.837 0 907 7.16344 907 16ZM884.599 16C884.599 19.5353 887.465 22.4012 891 22.4012C894.535 22.4012 897.401 19.5353 897.401 16C897.401 12.4647 894.535 9.59878 891 9.59878C887.465 9.59878 884.599 12.4647 884.599 16Z" fill="#3C322D" fill-opacity="0.06"/>
<path d="M20 155C20 166.046 11.0457 175 0 175C-11.0457 175 -20 166.046 -20 155C-20 143.954 -11.0457 135 0 135C11.0457 135 20 143.954 20 155ZM-14.6026 155C-14.6026 163.065 -8.06482 169.603 0 169.603C8.06482 169.603 14.6026 163.065 14.6026 155C14.6026 146.935 8.06482 140.397 0 140.397C-8.06482 140.397 -14.6026 146.935 -14.6026 155Z" fill="#D68362" fill-opacity="0.17"/>
<path d="M1331 132C1331 159.614 1308.61 182 1281 182C1253.39 182 1231 159.614 1231 132C1231 104.386 1253.39 82 1281 82C1308.61 82 1331 104.386 1331 132ZM1250.26 132C1250.26 148.979 1264.02 162.743 1281 162.743C1297.98 162.743 1311.74 148.979 1311.74 132C1311.74 115.021 1297.98 101.257 1281 101.257C1264.02 101.257 1250.26 115.021 1250.26 132Z" fill="#D68362" fill-opacity="0.15"/>
<path d="M411 76C411 98.0914 393.091 116 371 116C348.909 116 331 98.0914 331 76C331 53.9086 348.909 36 371 36C393.091 36 411 53.9086 411 76ZM346.464 76C346.464 89.5507 357.449 100.536 371 100.536C384.551 100.536 395.536 89.5507 395.536 76C395.536 62.4493 384.551 51.4643 371 51.4643C357.449 51.4643 346.464 62.4493 346.464 76Z" fill="#F3848C" fill-opacity="0.12"/>
<path d="M743 130C743 143.807 731.807 155 718 155C704.193 155 693 143.807 693 130C693 116.193 704.193 105 718 105C731.807 105 743 116.193 743 130ZM702.665 130C702.665 138.469 709.531 145.335 718 145.335C726.469 145.335 733.335 138.469 733.335 130C733.335 121.531 726.469 114.665 718 114.665C709.531 114.665 702.665 121.531 702.665 130Z" fill="#E6C01C" fill-opacity="0.06"/>
<path d="M111 16C111 24.8366 103.837 32 95 32C86.1634 32 79 24.8366 79 16C79 7.16344 86.1634 0 95 0C103.837 0 111 7.16344 111 16ZM88.5988 16C88.5988 19.5353 91.4647 22.4012 95 22.4012C98.5353 22.4012 101.401 19.5353 101.401 16C101.401 12.4647 98.5353 9.59878 95 9.59878C91.4647 9.59878 88.5988 12.4647 88.5988 16Z" fill="#3C322D" fill-opacity="0.06"/>
</svg>
